<svg version="1.1" id="Layer_1" xmlns="http://www.w3.org/2000/svg" xmlns:xlink="http://www.w3.org/1999/xlink" x="0px" y="0px"
	 width="100%" viewBox="0 0 460 460" enable-background="new 255 255 255 255" xml:space="preserve">
	<rect width="460" height="460" fill="white"/>
<path fill="white" opacity="1.000000" stroke="#000000" stroke-linecap="round" stroke-linejoin="round" stroke-width="4.000000"
	d="
M370.500000,459.500000 
	C366.602966,461.779266 363.333252,458.896240 360.042023,457.865784 
	C353.115295,455.696991 345.969574,456.811066 338.976715,455.638855 
	C330.391144,454.199615 321.621765,453.964752 312.985229,452.592926 
	C309.214752,451.993988 305.302277,451.909393 301.489197,451.678467 
	C291.179993,451.054108 280.870911,449.996765 270.497894,450.451874 
	C263.357056,450.765198 256.462341,448.822693 249.482559,447.599518 
	C245.411697,446.886108 241.165848,447.012939 237.000183,447.035126 
	C230.332825,447.070618 223.666687,447.334137 216.999954,447.498383 
	C216.500259,447.510712 215.929489,447.339539 215.510406,447.523682 
	C206.832779,451.336700 198.348526,448.168884 190.043015,446.308014 
	C184.675491,445.105377 179.423767,444.433594 174.000031,444.502716 
	C169.715591,444.557343 165.641846,443.783112 161.452682,442.679657 
	C156.148514,441.282471 150.657501,440.917297 144.949203,442.288513 
	C140.537109,443.348328 135.635376,442.844299 131.006943,442.423615 
	C123.006470,441.696411 115.401001,444.625671 107.499962,444.502502 
	C106.333580,444.484344 105.159851,444.581726 104.001244,444.485138 
	C100.040199,444.154846 97.898132,442.437439 98.430351,437.991669 
	C98.847282,434.508972 97.770973,430.734406 101.000000,428.000000 
"/>
<path fill="white" opacity="1.000000" stroke="#000000" stroke-linecap="round" stroke-linejoin="round" stroke-width="4.000000"
	d="
M399.000000,412.000000 
	C395.160431,415.914673 395.683777,421.299194 394.668427,426.036102 
	C393.539490,431.302673 393.046600,432.149231 387.995178,431.021576 
	C375.440735,428.218872 363.101593,424.571259 350.006714,424.236938 
	C344.889679,424.106262 339.669922,423.785248 334.500214,423.496216 
	C321.810883,422.786835 309.070892,422.732117 296.495361,420.526398 
	C295.363525,420.327850 294.162720,420.436951 293.000610,420.509766 
	C281.468536,421.232361 269.939178,420.193756 258.522888,419.229156 
	C248.359909,418.370453 237.981277,418.782196 228.000000,416.000000 
"/>
<path fill="white" opacity="1.000000" stroke="#000000" stroke-linecap="round" stroke-linejoin="round" stroke-width="4.000000"
	d="
M257.000000,393.000000 
	C257.988342,394.560944 258.362579,396.532135 260.999634,396.550659 
	C272.735779,396.632996 284.332031,398.567566 296.006317,399.412842 
	C309.805664,400.412018 323.671844,400.203888 337.493622,400.683960 
	C348.162323,401.054565 358.873627,400.851318 369.483795,401.702240 
	C377.565460,402.350342 385.922882,403.790558 393.373413,406.812103 
	C399.977112,409.490173 406.455688,413.988037 411.156982,419.303406 
	C414.185181,422.727203 417.337646,426.534515 420.063873,430.455597 
	C421.177643,432.057465 422.793915,433.625977 424.540527,434.409668 
	C428.931702,436.379974 429.097656,438.760406 426.032898,442.030853 
	C425.783447,442.297058 426.000000,443.000000 426.000000,443.500000 
"/>
<path fill="white" opacity="1.000000" stroke="#000000" stroke-linecap="round" stroke-linejoin="round" stroke-width="4.000000"
	d="
M341.000000,320.000000 
	C337.716309,323.905426 338.291260,329.087677 336.715027,333.575531 
	C335.888153,335.929810 335.051697,338.571289 334.237793,340.908691 
	C332.582306,345.662933 332.838074,350.399780 333.211395,354.982788 
	C333.562286,359.289978 333.259125,363.481171 332.320221,367.457550 
	C331.399261,371.357910 332.999542,371.993896 335.995728,372.524109 
	C349.584686,374.928864 363.299316,374.599792 376.999847,374.481232 
	C387.704071,374.388611 397.165924,378.059479 406.559845,382.883484 
	C419.420502,389.487701 429.259003,399.000519 437.043396,410.971771 
	C438.709869,413.534515 440.803070,415.863586 443.500000,417.500000 
"/>
<path fill="white" opacity="1.000000" stroke="#000000" stroke-linecap="round" stroke-linejoin="round" stroke-width="4.000000"
	d="
M387.000000,388.000000 
	C384.371552,385.829071 381.238342,385.473297 378.000000,385.500397 
	C371.651978,385.553497 365.336334,385.708832 358.986542,386.370789 
	C350.513855,387.253998 342.066711,384.841095 333.495056,385.427856 
	C324.820709,386.021637 316.448090,383.557007 307.997437,382.014069 
	C303.011505,381.103729 298.024902,379.887756 292.994049,379.606506 
	C285.800507,379.204254 279.636658,382.743347 273.500000,386.000000 
"/>
<path fill="white" opacity="1.000000" stroke="#000000" stroke-linecap="round" stroke-linejoin="round" stroke-width="4.000000"
	d="
M102.000000,443.500000 
	C105.140160,436.570801 102.957413,429.514862 102.326996,422.253418 
	C108.833336,423.651825 115.054665,423.669708 121.531380,422.712280 
	C128.055496,421.747894 134.833328,422.500000 141.500000,422.500000 
	C142.833328,422.500000 144.574631,423.049347 145.434021,422.411163 
	C151.160797,418.158386 157.177261,420.281891 162.959442,421.669037 
	C165.184540,422.202789 167.302567,422.442413 169.500290,422.485260 
	C180.004776,422.690063 190.624893,422.793915 200.942398,423.994843 
	C207.254318,424.729492 213.379089,425.114685 219.486420,424.386169 
	C233.161255,422.755005 246.432983,426.553314 259.989044,426.913055 
	C271.951172,427.230499 284.006866,427.861877 295.986755,428.691162 
	C305.988861,429.383575 316.104553,429.423462 326.007446,431.463867 
	C327.286469,431.727417 328.669373,431.555634 329.999573,431.490967 
	C338.530457,431.076294 346.952759,432.710724 355.501038,432.651337 
	C364.807098,432.586670 373.587341,436.153564 382.450104,438.675385 
	C383.813202,439.063202 385.190186,439.121246 386.488861,439.535004 
	C389.720276,440.564545 393.372406,441.193939 393.043884,446.002991 
	C392.902618,448.071136 394.011658,449.545959 395.981812,450.536224 
	C399.791901,452.451202 401.116241,456.692963 404.000000,459.500000 
"/>
<path fill="white" opacity="1.000000" stroke="#000000" stroke-linecap="round" stroke-linejoin="round" stroke-width="4.000000"
	d="
M173.000000,296.500000 
	C170.156143,300.089111 167.436401,300.800201 162.392838,299.380737 
	C155.558289,297.457184 147.711426,296.626129 141.042404,301.063721 
	C136.104141,304.349701 130.300217,304.575134 124.957916,306.375092 
	C122.960907,307.047943 121.189598,307.777832 119.480499,308.972107 
	C115.830978,311.522247 112.028542,313.516937 107.545418,314.675720 
	C101.931801,316.126648 100.723526,321.993591 98.595779,326.544769 
	C97.208504,329.512054 96.046562,332.619904 95.306549,335.957092 
	C94.427292,339.922302 90.543732,342.003632 86.963112,343.405792 
	C82.879829,345.004791 79.515205,347.581146 76.007088,350.010223 
	C74.292465,351.197510 73.914108,353.007843 73.392555,354.971466 
	C72.436333,358.571625 71.172554,362.188660 69.370743,365.428101 
	C68.316978,367.322601 68.479202,368.500000 69.576004,370.134399 
	C64.724182,373.418304 59.836102,376.671661 55.011410,380.016449 
	C52.734184,381.595184 50.214256,383.097046 50.500000,386.500000 
"/>
<path fill="white" opacity="1.000000" stroke="#000000" stroke-linecap="round" stroke-linejoin="round" stroke-width="4.000000"
	d="
M195.500000,460.250000 
	C194.333328,460.333344 192.593735,460.949615 192.094070,460.412506 
	C189.113480,457.208313 185.335556,458.374451 182.007965,458.611755 
	C173.254410,459.235992 164.925110,456.845520 156.548492,455.246033 
	C153.624878,454.687805 150.615311,454.121552 148.040009,454.683411 
	C142.333130,455.928497 136.668854,455.405090 130.999619,455.442078 
	C124.083496,455.487274 117.308006,456.330261 110.481148,457.377045 
	C103.997787,458.371185 97.492569,456.596619 91.000000,456.000000 
"/>
<path fill="white" opacity="1.000000" stroke="#000000" stroke-linecap="round" stroke-linejoin="round" stroke-width="4.000000"
	d="
M364.000000,388.000000 
	C364.666687,388.500000 365.429596,389.523132 365.985443,389.420868 
	C373.340607,388.067688 380.619904,392.214355 388.027863,389.578308 
	C390.315979,388.764099 392.416779,390.763153 394.457489,391.603271 
	C403.165192,395.187927 412.279816,398.545502 418.351471,406.119080 
	C421.771179,410.384766 426.125702,413.757538 429.055573,418.465424 
	C433.154266,425.051361 439.731537,426.666565 447.000214,426.509979 
	C449.832245,426.448975 452.666656,426.500000 455.500000,426.500000 
"/>
<path fill="white" opacity="1.000000" stroke="#000000" stroke-linecap="round" stroke-linejoin="round" stroke-width="4.000000"
	d="
M351.000000,154.500000 
	C356.716675,162.107941 352.027283,168.926834 348.791046,175.395462 
	C347.156311,178.663101 344.636322,181.990265 340.539215,183.599792 
	C335.527588,185.568604 333.500488,190.426086 331.537964,195.016220 
	C330.027008,198.550186 328.115112,201.797974 326.081238,205.050797 
	C323.651184,208.937241 319.579224,209.700974 315.969818,210.325562 
	C307.907806,211.720642 304.374573,213.929321 304.713898,221.990997 
	C305.223724,234.104935 303.108124,245.448273 298.556641,256.523285 
	C298.288055,257.176788 298.071198,258.319092 299.000000,259.000000 
"/>
<path fill="white" opacity="1.000000" stroke="#000000" stroke-linecap="round" stroke-linejoin="round" stroke-width="5.000000"
	d="
M459.500000,425.500000 
	C459.237946,422.920624 460.895294,420.669983 460.598480,417.989105 
	C460.378143,415.999115 460.320709,414.167816 458.494415,413.008820 
	C451.225800,408.396057 446.401337,401.412750 441.023987,394.979950 
	C438.585083,392.062317 436.092834,389.216949 432.986328,387.019348 
	C428.596924,383.914154 424.775818,380.101227 421.616058,375.912445 
	C416.524323,369.162506 410.118835,364.035156 402.904907,360.177826 
	C397.922302,357.513580 393.590210,354.124298 388.975922,351.035950 
	C384.251251,347.873688 379.090820,345.319275 374.580811,341.893616 
	C371.286804,339.391571 368.383850,339.270081 365.000000,341.000000 
"/>
<path fill="white" opacity="1.000000" stroke="#000000" stroke-linecap="round" stroke-linejoin="round" stroke-width="8.000000"
	d="
M412.500000,374.000000 
	C408.832001,370.554138 404.456726,368.219147 400.009735,365.980682 
	C398.944153,365.444275 397.699890,364.878906 397.052185,363.963074 
	C394.320465,360.100433 390.004791,359.365814 385.981750,358.595215 
	C376.725861,356.822205 367.459961,354.423401 358.003906,354.657471 
	C351.745300,354.812439 345.614868,356.288910 339.435699,353.650574 
	C337.864502,352.979675 335.500000,354.166687 333.500000,354.500000 
"/>
<path fill="white" opacity="1.000000" stroke="#000000" stroke-linecap="round" stroke-linejoin="round" stroke-width="4.000000"
	d="
M157.000000,391.000000 
	C159.756256,394.141632 163.919037,392.919342 167.025940,393.149078 
	C174.942352,393.734406 182.964096,393.828278 191.045715,392.896484 
	C195.844147,392.343262 201.865860,392.251892 206.451401,395.567230 
	C209.319656,397.640961 212.408813,397.841553 215.487854,397.412811 
	C219.968277,396.788910 224.186646,397.906860 228.500000,398.500000 
"/>
<path fill="white" opacity="1.000000" stroke="#000000" stroke-linecap="round" stroke-linejoin="round" stroke-width="4.000000"
	d="
M267.000000,150.000000 
	C269.500000,146.320908 272.644592,148.683334 274.372070,150.150604 
	C278.574524,153.720078 284.700165,155.368500 286.508118,161.497604 
	C286.611938,161.849487 286.806152,162.441055 287.003906,162.460632 
	C296.808228,163.430954 296.609863,172.554642 299.223480,178.619171 
	C302.541840,186.318939 303.149200,194.964828 302.509216,203.500687 
	C302.222870,207.319427 304.566711,210.259979 306.000000,213.500000 
"/>
<path fill="white" opacity="1.000000" stroke="#000000" stroke-linecap="round" stroke-linejoin="round" stroke-width="4.000000"
	d="
M103.000000,399.000000 
	C100.836617,396.816925 97.838982,396.827423 95.544220,397.626923 
	C86.422005,400.805115 76.590065,400.268524 67.483887,403.453949 
	C59.592487,406.214386 53.055775,411.140930 46.591057,416.118256 
	C44.783840,417.509674 45.160023,420.146973 46.336838,422.578949 
	C46.921738,423.787689 47.895039,426.017273 45.557095,427.585144 
	C43.751373,428.796082 41.818264,428.792389 40.575836,427.895020 
	C37.324013,425.546204 33.917442,423.865906 30.012234,422.947937 
	C27.356300,422.323669 27.049824,420.036957 28.054417,418.027191 
	C31.920155,410.293427 35.259308,402.131348 40.271446,395.196167 
	C43.392281,390.877960 47.689503,386.809174 54.464661,386.141449 
	C58.984066,385.696014 63.162849,381.826141 67.509514,379.517883 
	C67.769531,379.379852 68.166664,379.500000 68.500000,379.500000 
"/>
<path fill="white" opacity="1.000000" stroke="#000000" stroke-linecap="round" stroke-linejoin="round" stroke-width="4.000000"
	d="
M165.500000,145.500000 
	C163.001282,156.000305 163.344727,166.912994 158.426987,177.204041 
	C155.623550,183.070679 155.935593,190.843094 156.858429,198.018204 
	C157.816299,205.465622 158.645325,213.016968 156.153336,220.550720 
	C155.209183,223.405090 156.002014,226.833328 155.999557,230.000000 
	C155.995239,235.573471 155.994080,235.536346 150.500015,235.538834 
	C149.647644,235.539230 148.795517,236.056839 147.925385,236.341110 
	C143.978073,233.690689 146.153839,228.186737 143.000000,225.000000 
"/>
<path fill="white" opacity="1.000000" stroke="#000000" stroke-linecap="round" stroke-linejoin="round" stroke-width="4.000000"
	d="
M184.500000,319.500000 
	C183.963226,327.456696 189.285767,333.477051 191.753433,340.409790 
	C193.472610,345.239655 195.607193,349.784180 196.900467,354.898743 
	C197.923233,358.943420 196.804428,365.182312 203.000000,367.000000 
"/>
<path fill="white" opacity="1.000000" stroke="#000000" stroke-linecap="round" stroke-linejoin="round" stroke-width="8.000000"
	d="
M204.000000,375.500000 
	C202.074554,377.547119 198.838470,377.304626 197.001892,379.501587 
	C196.137009,380.536133 194.635025,380.294342 194.054901,379.915863 
	C188.735992,376.445679 183.564972,377.260712 177.957687,379.388489 
	C172.772659,381.356018 167.318832,379.224396 162.008484,378.872131 
	C158.498993,378.639343 155.000351,378.659302 151.500000,378.500000 
"/>
<path fill="white" opacity="1.000000" stroke="#000000" stroke-linecap="round" stroke-linejoin="round" stroke-width="4.000000"
	d="
M94.500000,426.000000 
	C86.904831,426.023163 79.719528,422.633698 71.993423,423.436737 
	C68.405777,423.809662 65.931442,425.074432 63.319046,427.828339 
	C60.114857,431.206055 55.613770,433.333771 51.880703,436.352478 
	C49.751575,438.074188 42.623405,432.135803 42.000000,428.500000 
"/>
<path fill="white" opacity="1.000000" stroke="#000000" stroke-linecap="round" stroke-linejoin="round" stroke-width="4.000000"
	d="
M308.500000,321.000000 
	C309.571869,322.576141 309.730469,324.555634 308.926331,325.957764 
	C302.766785,336.698090 298.427826,348.155792 294.972382,359.991943 
	C294.856567,360.388794 294.333344,360.666656 294.000000,361.000000 
"/>
<path fill="white" opacity="1.000000" stroke="#000000" stroke-linecap="round" stroke-linejoin="round" stroke-width="4.000000"
	d="
M249.500000,213.000000 
	C246.202820,215.313095 243.503845,211.542053 239.953110,212.271881 
	C232.945465,213.712265 225.667694,213.844574 218.499588,214.495453 
	C214.725861,214.838120 212.154938,216.541885 211.500000,220.500000 
"/>
<path fill="white" opacity="1.000000" stroke="#000000" stroke-linecap="round" stroke-linejoin="round" stroke-width="5.000000"
	d="
M312.000000,306.500000 
	C313.353302,310.402466 311.865662,318.613953 308.418060,320.335938 
	C302.115997,323.483704 299.665924,329.695160 295.568237,334.557526 
	C292.671692,337.994629 290.085846,341.687012 287.051514,345.046509 
	C283.924042,348.509125 280.448853,351.896790 279.982422,356.998383 
	C279.950836,357.344055 279.753998,357.840637 279.487213,357.974548 
	C272.435608,361.514465 270.223755,370.380280 261.609985,372.879181 
	C256.173309,374.456360 253.169373,381.253052 248.000000,384.500000 
"/>
<path fill="white" opacity="1.000000" stroke="#000000" stroke-linecap="round" stroke-linejoin="round" stroke-width="4.000000"
	d="
M209.500000,203.500000 
	C211.738663,203.453339 213.563339,203.841614 214.719055,200.577560 
	C216.132629,196.585236 219.022415,193.064575 221.530151,189.521332 
	C226.679153,182.246216 231.519485,182.185135 237.021896,188.982285 
	C240.063324,192.739395 244.903610,193.148575 249.045471,194.342209 
	C256.806854,196.578964 264.712311,196.072800 272.553619,193.675415 
	C273.951508,193.248047 276.347778,191.841049 278.000000,194.000000 
"/>
<path fill="white" opacity="1.000000" stroke="#000000" stroke-linecap="round" stroke-linejoin="round" stroke-width="4.000000"
	d="
M320.500000,293.500000 
	C313.333344,291.398407 306.166656,293.088623 298.794739,293.042694 
	C302.112396,298.720917 305.185394,303.981293 311.500000,306.000000 
"/>
<path fill="white" opacity="1.000000" stroke="#000000" stroke-linecap="round" stroke-linejoin="round" stroke-width="4.000000"
	d="
M457.000000,449.500000 
	C457.260315,445.757935 454.761078,445.637604 452.002380,445.462677 
	C445.419617,445.045288 439.153992,446.693970 433.056793,448.674835 
	C431.014832,449.338226 428.920563,449.639557 426.983246,449.822876 
	C424.260376,450.080475 421.906189,450.465118 419.999268,452.499298 
	C416.835114,455.874817 413.527649,455.008240 410.533691,452.460388 
	C406.404266,448.946228 403.160706,444.480103 398.550079,441.424438 
	C397.173431,440.512085 396.169220,438.930634 397.928558,436.936951 
	C399.169373,435.530823 399.952362,433.593079 399.500000,431.500000 
"/>
<path fill="white" opacity="1.000000" stroke="#000000" stroke-linecap="round" stroke-linejoin="round" stroke-width="4.000000"
	d="
M177.500000,126.500000 
	C177.785065,130.405731 180.559845,130.490646 183.499786,130.521042 
	C187.650696,130.563980 191.666077,129.800186 195.185257,133.838562 
	C197.925018,136.982559 202.741928,137.173676 206.998428,136.967575 
	C211.499054,136.749649 215.903214,136.625473 219.500000,140.000000 
"/>
<path fill="white" opacity="1.000000" stroke="#000000" stroke-linecap="round" stroke-linejoin="round" stroke-width="5.000000"
	d="
M167.500000,262.500000 
	C170.666656,266.833344 173.820572,271.176086 177.004333,275.496796 
	C179.227219,278.513458 180.685455,280.959167 177.197144,284.684601 
	C174.753311,287.294525 172.489441,291.140808 173.712479,295.500000 
	C174.666672,295.500000 175.583328,295.500000 176.500000,295.500000 
"/>
<path fill="white" opacity="1.000000" stroke="#000000" stroke-linecap="round" stroke-linejoin="round" stroke-width="4.000000"
	d="
M136.500000,123.000000 
	C130.593552,123.687119 126.772697,128.545395 121.923058,130.500000 
	C121.166664,130.500000 120.691170,130.644562 120.521713,130.477921 
	C118.558609,128.547333 116.627579,126.145027 113.532616,128.052902 
	C110.971405,129.631744 111.142616,132.569305 111.613495,134.977814 
	C112.089363,137.411804 112.252106,139.599136 111.559097,142.016937 
	C110.674423,145.103485 113.128105,147.148758 114.385880,149.376938 
	C110.292641,155.972961 110.715775,162.734528 113.544899,169.481171 
	C115.284622,173.629883 116.752106,178.013611 120.486824,181.016388 
	C121.645645,181.948105 121.198418,183.473373 120.925819,184.479904 
	C118.910835,191.919907 121.814316,197.183990 128.017883,200.970703 
	C130.957840,202.765259 132.544052,205.225250 131.392288,208.461670 
	C130.599197,210.690186 132.164780,211.252304 132.970367,212.518845 
	C135.130936,215.915680 138.283173,218.780273 134.774490,223.695923 
	C133.392166,225.632599 134.233322,229.622223 133.000000,232.500000 
"/>
<path fill="white" opacity="1.000000" stroke="#000000" stroke-linecap="round" stroke-linejoin="round" stroke-width="4.000000"
	d="
M317.500000,211.000000 
	C317.600403,212.713257 317.622284,214.300629 318.395569,216.046265 
	C321.216675,222.414703 319.482941,228.780167 317.474976,234.991913 
	C314.982391,242.702698 309.778015,248.970123 305.914032,255.952423 
	C305.420197,256.844757 305.065857,258.254150 303.505280,258.529846 
	C295.902557,259.872772 292.462860,265.457184 289.983368,271.993683 
	C289.775635,272.541351 289.333313,273.000000 289.000000,273.500000 
"/>
<path fill="white" opacity="1.000000" stroke="#000000" stroke-linecap="round" stroke-linejoin="round" stroke-width="4.000000"
	d="
M283.000000,169.000000 
	C282.666656,168.666656 282.374786,168.273682 281.993805,168.008896 
	C275.770752,163.683853 269.062347,163.900543 261.974915,165.379868 
	C258.621033,166.079910 254.929779,165.059311 251.516434,165.603180 
	C246.385010,166.420761 240.279861,165.071152 237.000000,171.000000 
"/>
<path fill="white" opacity="1.000000" stroke="#000000" stroke-linecap="round" stroke-linejoin="round" stroke-width="4.000000"
	d="
M218.500000,249.000000 
	C222.104294,254.073532 228.054108,253.130768 233.033661,254.364059 
	C237.990097,255.591629 242.828812,254.148560 247.000000,251.000000 
"/>
<path fill="white" opacity="1.000000" stroke="#000000" stroke-linecap="round" stroke-linejoin="round" stroke-width="4.000000"
	d="
M212.000000,240.000000 
	C215.409927,237.219025 219.543381,237.036087 223.484680,237.605927 
	C228.975571,238.399811 234.418808,238.069534 239.417023,236.269592 
	C242.211777,235.263168 244.247025,235.669937 246.466156,236.582306 
	C247.578262,237.039536 249.503387,237.459473 248.979553,239.494736 
	C248.529968,241.241425 247.600479,242.654968 245.500870,242.488953 
	C238.787155,241.958130 232.291702,245.159958 225.485382,243.562302 
	C223.770386,243.159729 221.773438,243.189255 220.500000,245.000000 
"/>
<path fill="white" opacity="1.000000" stroke="#000000" stroke-linecap="round" stroke-linejoin="round" stroke-width="4.000000"
	d="
M215.500000,197.000000 
	C213.122147,195.001053 210.725906,195.169525 207.976532,196.449585 
	C202.622986,198.942093 196.850159,199.466736 191.000870,199.556534 
	C189.544739,199.578873 188.820801,198.858383 188.000000,198.000000 
"/>
<path fill="white" opacity="1.000000" stroke="#000000" stroke-linecap="round" stroke-linejoin="round" stroke-width="8.000000"
	d="
M280.500000,357.000000 
	C284.881287,356.368103 288.424072,358.141846 291.484283,361.016724 
	C294.935181,364.258606 298.926727,366.819977 303.074219,368.848267 
	C306.362762,370.456482 309.136810,368.896942 309.949310,365.487915 
	C313.183746,351.917328 318.160339,338.882324 322.037598,325.510895 
	C323.988831,318.781769 326.313446,312.160095 328.509552,305.503143 
	C329.416473,302.753998 326.449585,293.317474 323.969666,292.605621 
	C321.058380,291.769989 320.088226,294.499695 319.017120,296.509125 
	C317.082825,300.137909 315.906586,304.338531 311.500000,306.000000 
"/>
<path fill="white" opacity="1.000000" stroke="#000000" stroke-linecap="round" stroke-linejoin="round" stroke-width="4.000000"
	d="
M104.000000,358.000000 
	C107.985023,366.026031 112.001991,374.040527 117.029945,381.479767 
	C118.582314,383.776611 117.869881,385.833344 117.000000,388.000000 
"/>
<path fill="white" opacity="1.000000" stroke="#000000" stroke-linecap="round" stroke-linejoin="round" stroke-width="5.000000"
	d="
M20.500000,437.500000 
	C29.331041,439.546143 36.824505,444.269287 43.949112,449.568420 
	C46.439613,451.420807 48.649189,453.645050 51.500000,455.000000 
"/>
<path fill="white" opacity="1.000000" stroke="#000000" stroke-linecap="round" stroke-linejoin="round" stroke-width="5.000000"
	d="
M233.500000,199.500000 
	C235.730453,199.475311 237.990479,199.093216 239.552948,201.465118 
	C240.238388,202.505676 241.414871,203.306107 242.513962,203.977127 
	C249.138672,208.021759 249.152786,207.998627 251.070770,215.787369 
	C250.597992,217.827835 248.488205,218.637665 247.605042,219.831207 
	C245.952942,220.200958 245.263763,219.726669 244.470764,219.033447 
	C241.688904,216.601532 239.291962,216.692780 236.939621,219.956482 
	C234.719559,223.036621 229.178467,224.644394 226.622055,222.363220 
	C221.807434,218.066956 217.039474,219.507370 212.000000,221.000000 
"/>
<path fill="white" opacity="1.000000" stroke="#000000" stroke-linecap="round" stroke-linejoin="round" stroke-width="4.000000"
	d="
M141.500000,391.000000 
	C140.759369,395.355927 139.020248,399.227142 136.004013,402.503693 
	C132.081238,406.765106 129.297470,406.649200 126.012169,401.991425 
	C125.238289,400.894287 124.616501,399.689911 123.845116,398.401886 
	C126.223114,396.240082 124.490784,391.370880 128.530899,390.680908 
	C130.524475,390.340454 132.918335,391.810425 133.500000,394.500000 
"/>
<path fill="white" opacity="1.000000" stroke="#000000" stroke-linecap="round" stroke-linejoin="round" stroke-width="4.000000"
	d="
M81.000000,104.000000 
	C82.610710,102.165985 85.076645,101.798058 86.426491,100.887047 
	C86.775452,96.167580 86.827667,91.726852 82.306244,89.054565 
	C82.151855,89.139862 81.835060,89.457504 81.498665,89.479843 
	C73.480385,90.012138 73.340576,90.220886 73.464478,98.000565 
	C73.506012,100.608551 73.927322,102.487839 76.986183,103.072304 
	C79.055481,103.467674 81.009842,104.530594 81.500000,107.000000 
"/>
<path fill="white" opacity="1.000000" stroke="#000000" stroke-linecap="round" stroke-linejoin="round" stroke-width="4.000000"
	d="
M288.500000,375.500000 
	C284.543762,376.358490 280.574768,376.810272 276.495178,376.589294 
	C275.192719,376.518738 273.361816,377.110870 272.576202,378.062836 
	C267.304047,384.451172 261.649902,381.140106 256.000000,379.000000 
"/>
<path fill="white" opacity="1.000000" stroke="#000000" stroke-linecap="round" stroke-linejoin="round" stroke-width="4.000000"
	d="
M188.500000,167.500000 
	C182.581711,168.752090 176.898117,170.144653 172.418716,174.923813 
	C167.545807,180.122833 166.257614,184.342117 169.000000,190.500000 
"/>
<path fill="white" opacity="1.000000" stroke="#000000" stroke-linecap="round" stroke-linejoin="round" stroke-width="8.000000"
	d="
M101.000000,386.000000 
	C95.787476,384.745117 90.637306,385.577087 85.501221,386.506744 
	C73.819511,388.621277 62.551685,391.869110 52.485161,398.477386 
	C50.306477,399.907623 48.498177,401.094025 47.273918,403.901398 
	C45.347694,408.318542 40.667950,408.575012 36.000000,405.500000 
"/>
<path fill="white" opacity="1.000000" stroke="#000000" stroke-linecap="round" stroke-linejoin="round" stroke-width="4.000000"
	d="
M28.000000,422.000000 
	C24.654274,423.854736 23.779690,427.364594 22.540956,430.516113 
	C18.644646,440.428955 13.791433,449.995758 11.500000,460.500000 
"/>
<path fill="white" opacity="1.000000" stroke="#000000" stroke-linecap="round" stroke-linejoin="round" stroke-width="4.000000"
	d="
M129.000000,344.500000 
	C128.214096,345.993896 128.441071,347.838104 126.038460,348.618408 
	C121.712013,350.023560 121.446655,353.496887 122.437431,357.515442 
	C123.406509,361.445984 125.298660,364.962341 127.103935,368.446136 
	C129.580399,373.225128 130.068436,378.938232 134.000000,383.000000 
"/>
<path fill="white" opacity="1.000000" stroke="#000000" stroke-linecap="round" stroke-linejoin="round" stroke-width="4.000000"
	d="
M88.000000,363.000000 
	C91.695786,362.223663 93.113495,364.575928 93.406883,367.509308 
	C93.660164,370.041626 92.922935,371.819794 89.577728,372.772827 
	C86.757851,373.576233 84.141724,372.967133 81.500000,373.500000 
"/>
<path fill="white" opacity="1.000000" stroke="#000000" stroke-linecap="round" stroke-linejoin="round" stroke-width="4.000000"
	d="
M215.000000,170.000000 
	C212.830078,169.875565 210.838928,170.881165 208.418716,169.661240 
	C205.548920,168.214706 202.004333,167.415070 199.027832,170.031662 
	C198.336578,170.639328 197.590546,170.661697 197.014679,170.458420 
	C192.464462,168.852158 188.881851,171.599579 185.000000,173.000000 
"/>
<path fill="white" opacity="1.000000" stroke="#000000" stroke-linecap="round" stroke-linejoin="round" stroke-width="4.000000"
	d="
M139.500000,108.000000 
	C130.569565,108.723091 126.582794,116.032166 130.500000,124.500000 
"/>
<path fill="white" opacity="1.000000" stroke="#000000" stroke-linecap="round" stroke-linejoin="round" stroke-width="4.000000"
	d="
M89.500000,460.500000 
	C89.833336,457.833344 90.266632,455.174377 90.473015,452.497925 
	C90.697311,449.588867 89.565102,448.058258 86.508614,449.518036 
	C81.252823,452.028137 76.190430,454.962982 69.994362,454.594971 
	C68.595581,454.511902 67.562859,456.062866 67.000000,457.500000 
"/>
<path fill="white" opacity="1.000000" stroke="#000000" stroke-linecap="round" stroke-linejoin="round" stroke-width="4.000000"
	d="
M271.000000,180.500000 
	C267.531281,184.820419 262.413788,185.504532 257.481812,186.399719 
	C256.440216,186.588776 254.904099,185.769226 254.056229,184.942337 
	C252.434311,183.360565 250.585312,182.973724 248.500000,183.000000 
"/>
<path fill="white" opacity="1.000000" stroke="#000000" stroke-linecap="round" stroke-linejoin="round" stroke-width="4.000000"
	d="
M207.500000,271.500000 
	C207.101700,269.217529 208.495926,267.831299 210.018814,266.503784 
	C217.201431,267.646484 223.661865,272.775818 231.500000,270.500000 
"/>
<path fill="white" opacity="1.000000" stroke="#000000" stroke-linecap="round" stroke-linejoin="round" stroke-width="8.000000"
	d="
M285.500000,186.000000 
	C283.557648,183.212326 280.263428,182.346863 277.458496,181.672684 
	C271.382690,180.212311 266.005615,177.043777 260.025391,175.407242 
	C256.845642,174.537048 254.390091,176.649048 251.500000,176.500000 
"/>
<path fill="white" opacity="1.000000" stroke="#000000" stroke-linecap="round" stroke-linejoin="round" stroke-width="5.000000"
	d="
M105.500000,400.500000 
	C100.201813,400.731384 93.164452,406.587891 92.551872,411.506470 
	C92.320442,413.364716 92.011452,415.438538 94.482376,416.539551 
	C97.325111,417.806274 100.240913,416.768158 102.381783,415.751129 
	C104.581345,414.706268 105.837158,411.669617 107.499146,409.499329 
	C110.203163,405.968323 108.847664,403.108734 106.000000,400.500000 
"/>
<path fill="white" opacity="1.000000" stroke="#000000" stroke-linecap="round" stroke-linejoin="round" stroke-width="4.000000"
	d="
M273.000000,68.500000 
	C277.270294,69.393326 281.340546,70.542259 284.034729,74.476219 
	C285.770508,77.010757 289.132904,76.548561 291.500000,78.000000 
"/>
<path fill="white" opacity="1.000000" stroke="#000000" stroke-linecap="round" stroke-linejoin="round" stroke-width="10.000000"
	d="
M147.000000,318.500000 
	C147.055573,321.296295 146.015366,323.671783 144.543747,326.027344 
	C142.212967,329.758148 140.166672,333.666656 138.000000,337.500000 
"/>
<path fill="white" opacity="1.000000" stroke="#000000" stroke-linecap="round" stroke-linejoin="round" stroke-width="4.000000"
	d="
M192.000000,58.500000 
	C191.464264,55.635857 193.200638,52.451241 190.056107,49.930019 
	C186.505569,47.083260 183.696579,46.502125 178.561493,49.120586 
	C177.952759,49.430984 177.426361,49.112438 177.032715,49.520329 
	C175.146240,48.239460 175.683838,46.287369 175.463043,44.504578 
	C175.183960,42.251133 174.636536,40.030125 171.500000,40.500000 
"/>
<path fill="white" opacity="1.000000" stroke="#000000" stroke-linecap="round" stroke-linejoin="round" stroke-width="7.000000"
	d="
M183.000000,301.500000 
	C183.785126,306.213165 180.357544,309.723053 179.354355,313.965576 
	C178.243271,318.664337 176.365906,323.199768 175.500000,328.000000 
"/>
<path fill="white" opacity="1.000000" stroke="#000000" stroke-linecap="round" stroke-linejoin="round" stroke-width="4.000000"
	d="
M204.000000,82.000000 
	C207.492813,84.245659 211.279266,83.744286 214.992538,82.964485 
	C220.071259,81.897942 220.378632,82.067589 222.048141,86.983650 
	C222.702271,88.909744 223.595474,89.789841 226.494247,89.839027 
	C230.863419,89.913155 233.963470,90.207283 237.265121,86.219505 
	C239.493500,83.528053 243.236877,85.590546 245.000000,89.000000 
"/>
<path fill="white" opacity="1.000000" stroke="#000000" stroke-linecap="round" stroke-linejoin="round" stroke-width="4.000000"
	d="
M249.500000,240.500000 
	C255.540741,246.995422 256.041901,247.030914 265.524200,242.551193 
	C266.341705,242.164963 267.500000,242.500000 268.500000,242.500000 
"/>
<path fill="white" opacity="1.000000" stroke="#000000" stroke-linecap="round" stroke-linejoin="round" stroke-width="4.000000"
	d="
M460.500000,444.000000 
	C456.383148,438.584320 450.997101,440.407379 445.487061,440.832184 
	C439.016693,441.331055 433.143829,444.966431 426.500000,444.000000 
"/>
<path fill="white" opacity="1.000000" stroke="#000000" stroke-linecap="round" stroke-linejoin="round" stroke-width="5.000000"
	d="
M212.250000,222.500000 
	C208.700012,219.100235 207.170288,219.150238 205.534042,223.014420 
	C203.717987,227.303162 200.441513,231.245636 202.365494,236.548798 
	C202.662003,237.366028 201.166672,238.833328 200.500000,240.000000 
"/>
<path fill="white" opacity="1.000000" stroke="#000000" stroke-linecap="round" stroke-linejoin="round" stroke-width="5.000000"
	d="
M349.000000,328.000000 
	C349.190948,324.451996 345.350769,324.374481 343.867645,322.085754 
	C341.257111,318.057190 337.752319,314.717407 335.824921,310.072632 
	C334.813263,307.634613 332.929932,304.840393 329.500000,304.500000 
"/>
<path fill="white" opacity="1.000000" stroke="#000000" stroke-linecap="round" stroke-linejoin="round" stroke-width="4.000000"
	d="
M440.000000,397.000000 
	C438.028076,400.603119 439.802490,406.373688 444.000610,409.999298 
	C445.163483,411.003662 446.333344,412.000000 447.500000,413.000000 
"/>
<path fill="white" opacity="1.000000" stroke="#000000" stroke-linecap="round" stroke-linejoin="round" stroke-width="4.000000"
	d="
M164.000000,280.500000 
	C162.848480,286.318176 161.243469,292.002991 159.000000,297.500000 
"/>
<path fill="white" opacity="1.000000" stroke="#000000" stroke-linecap="round" stroke-linejoin="round" stroke-width="5.000000"
	d="
M225.000000,50.000000 
	C227.182953,54.631004 228.906174,59.489944 232.932114,63.076210 
	C234.097595,64.114403 235.062195,64.632652 236.500000,64.500000 
"/>
<path fill="white" opacity="1.000000" stroke="#000000" stroke-linecap="round" stroke-linejoin="round" stroke-width="4.000000"
	d="
M176.750000,50.000000 
	C173.492538,55.220551 176.316956,60.474266 177.278320,65.446182 
	C177.853165,68.419258 178.019165,70.624962 175.944962,72.436996 
	C173.362213,74.693306 172.853714,78.155685 170.551300,80.549355 
	C169.291382,81.859222 169.518570,84.162094 170.130646,85.437294 
	C171.788712,88.891731 169.529938,91.219284 167.441513,91.783516 
	C163.180542,92.934708 160.066589,97.478920 155.000000,96.000000 
"/>
<path fill="white" opacity="1.000000" stroke="#000000" stroke-linecap="round" stroke-linejoin="round" stroke-width="11.000000"
	d="
M153.500000,299.500000 
	C152.833344,304.000000 152.014313,308.484711 151.561005,313.006104 
	C151.315536,315.454559 150.165573,316.829224 147.994568,317.481934 
	C145.517990,318.226501 143.000000,318.833344 140.500000,319.500000 
"/>
<path fill="white" opacity="1.000000" stroke="#000000" stroke-linecap="round" stroke-linejoin="round" stroke-width="4.000000"
	d="
M351.000000,388.000000 
	C349.128296,390.654266 346.363403,389.266815 343.996063,389.449005 
	C341.179413,389.665741 338.333344,389.500000 335.500000,389.500000 
"/>
<path fill="white" opacity="1.000000" stroke="#000000" stroke-linecap="round" stroke-linejoin="round" stroke-width="4.000000"
	d="
M308.500000,369.000000 
	C309.740601,371.137329 311.782654,371.982269 313.984131,371.436066 
	C318.463684,370.324707 322.947754,370.118469 327.499786,370.502594 
	C328.941406,370.624237 329.885895,369.622620 331.000000,369.000000 
"/>
<path fill="white" opacity="1.000000" stroke="#000000" stroke-linecap="round" stroke-linejoin="round" stroke-width="4.000000"
	d="
M173.000000,78.500000 
	C175.207214,79.686455 178.269379,78.479065 179.999985,81.000046 
	C178.066788,86.380173 180.440033,94.608551 184.515656,96.465637 
	C184.898254,96.639977 185.500000,96.333336 186.000000,96.250000 
"/>
<path fill="white" opacity="1.000000" stroke="#000000" stroke-linecap="round" stroke-linejoin="round" stroke-width="4.000000"
	d="
M362.500000,440.500000 
	C362.825195,442.643646 361.365906,443.748657 360.019012,445.020142 
	C356.974823,447.893982 354.421387,451.097931 354.000000,455.500000 
"/>
<path fill="white" opacity="1.000000" stroke="#000000" stroke-linecap="round" stroke-linejoin="round" stroke-width="4.000000"
	d="
M358.500000,337.000000 
	C355.666656,338.605743 352.801178,338.126740 350.008118,336.980225 
	C346.486877,335.534790 343.669159,337.436066 341.086243,339.131409 
	C339.848175,339.944031 339.987732,341.874023 342.500000,341.500000 
"/>
<path fill="white" opacity="1.000000" stroke="#000000" stroke-linecap="round" stroke-linejoin="round" stroke-width="5.000000"
	d="
M320.500000,106.500000 
	C326.674988,109.205864 325.445679,109.452484 326.845642,116.430656 
	C328.246429,123.413139 324.443268,129.828049 326.487671,136.503769 
	C326.990662,138.146088 325.705627,139.471619 325.482880,140.980103 
	C327.506226,143.327118 328.655212,146.511444 332.149506,147.173874 
	C335.700562,145.201492 340.518890,145.883743 344.000000,143.000000 
"/>
<path fill="white" opacity="1.000000" stroke="#000000" stroke-linecap="round" stroke-linejoin="round" stroke-width="5.000000"
	d="
M289.000000,119.000000 
	C292.002716,117.526138 293.688416,114.923393 294.970520,112.065681 
	C292.175171,112.704025 289.356689,113.456184 286.496399,113.980324 
	C278.195068,115.501534 277.595703,116.088043 276.500000,124.500000 
"/>
<path fill="white" opacity="1.000000" stroke="#000000" stroke-linecap="round" stroke-linejoin="round" stroke-width="6.000000"
	d="
M204.500000,372.000000 
	C204.762955,373.515656 203.967041,375.110077 205.465210,376.536530 
	C210.316208,381.155396 215.309006,385.379272 222.500000,385.500000 
"/>
<path fill="white" opacity="1.000000" stroke="#000000" stroke-linecap="round" stroke-linejoin="round" stroke-width="7.000000"
	d="
M218.500000,59.750000 
	C216.598801,56.419083 217.318680,52.411194 220.526184,50.545017 
	C224.849075,48.029900 229.639343,46.697639 234.477661,45.415672 
	C238.928345,44.236401 241.215546,45.640747 242.000000,50.000000 
"/>
<path fill="white" opacity="1.000000" stroke="#000000" stroke-linecap="round" stroke-linejoin="round" stroke-width="4.000000"
	d="
M138.500000,195.500000 
	C138.524490,200.387802 138.123856,205.401566 142.500000,209.000000 
"/>
<path fill="white" opacity="1.000000" stroke="#000000" stroke-linecap="round" stroke-linejoin="round" stroke-width="4.000000"
	d="
M179.500000,345.500000 
	C179.680664,347.662018 178.953796,349.830414 181.430649,351.597229 
	C184.608261,353.863861 180.632828,356.833344 181.613586,359.587494 
	C179.275391,359.351929 178.489410,357.534607 177.513184,355.991669 
	C176.433701,354.285553 175.432755,352.505249 173.003708,354.006012 
	C169.026428,356.463287 164.475494,358.116547 161.529388,362.022156 
	C161.148422,362.527191 161.166672,363.333344 161.000000,364.000000 
"/>
<path fill="white" opacity="1.000000" stroke="#000000" stroke-linecap="round" stroke-linejoin="round" stroke-width="5.000000"
	d="
M237.500000,116.500000 
	C237.946396,118.369072 239.071411,119.700348 240.437241,121.062904 
	C242.246094,122.867455 241.825378,125.311569 240.969177,127.487869 
	C240.005447,129.937469 237.782928,128.943787 235.999664,128.985306 
	C233.501007,129.043488 231.000000,129.000000 228.500000,129.000000 
"/>
<path fill="white" opacity="1.000000" stroke="#000000" stroke-linecap="round" stroke-linejoin="round" stroke-width="10.000000"
	d="
M316.500000,180.750000 
	C311.949921,186.355042 312.098022,190.054703 317.560272,193.914719 
	C319.646942,195.389313 320.065216,197.372940 319.369232,198.941986 
	C317.899292,202.255936 319.131317,205.761368 318.000000,209.000000 
"/>
<path fill="white" opacity="1.000000" stroke="#000000" stroke-linecap="round" stroke-linejoin="round" stroke-width="4.000000"
	d="
M340.000000,347.000000 
	C344.666656,349.000000 349.333344,351.000000 354.000000,353.000000 
"/>
<path fill="white" opacity="1.000000" stroke="#000000" stroke-linecap="round" stroke-linejoin="round" stroke-width="14.000000"
	d="
M199.500000,97.500000 
	C201.666672,98.166664 204.053802,98.464691 205.943329,99.594749 
	C208.226181,100.960037 210.211563,101.541359 212.497681,99.996559 
	C214.987015,98.314430 216.614319,101.327393 219.009796,101.105850 
	C223.141129,100.723763 227.333328,101.000000 231.500000,101.000000 
"/>
<path fill="white" opacity="1.000000" stroke="#000000" stroke-linecap="round" stroke-linejoin="round" stroke-width="4.000000"
	d="
M350.000000,153.000000 
	C351.255890,146.753372 347.247375,142.095490 344.801025,137.097397 
	C344.090118,135.645035 341.878265,133.449249 338.987091,134.463196 
	C336.478333,135.343018 334.981384,136.489334 334.298462,139.453568 
	C333.750671,141.831177 333.533630,143.953110 334.000000,146.250000 
"/>
<path fill="white" opacity="1.000000" stroke="#000000" stroke-linecap="round" stroke-linejoin="round" stroke-width="4.000000"
	d="
M332.000000,148.000000 
	C330.914612,149.696594 330.980988,151.602600 331.012085,153.962677 
	C335.087433,154.215973 339.279572,156.188049 343.000000,152.500000 
"/>
<path fill="white" opacity="1.000000" stroke="#000000" stroke-linecap="round" stroke-linejoin="round" stroke-width="4.000000"
	d="
M230.500000,72.000000 
	C232.205795,77.087112 232.040298,77.269066 227.514679,78.551804 
	C225.602142,79.093895 223.352554,79.108971 222.000000,81.000000 
"/>
<path fill="white" opacity="1.000000" stroke="#000000" stroke-linecap="round" stroke-linejoin="round" stroke-width="4.000000"
	d="
M84.500000,426.000000 
	C82.054916,432.623566 75.987885,431.345764 70.983658,431.831726 
	C69.177612,432.007080 67.464966,431.373352 65.983467,432.984802 
	C63.814892,435.343750 65.815636,436.736847 66.948860,438.532288 
	C68.162590,440.455231 69.420845,442.563446 68.000000,445.000000 
"/>
<path fill="white" opacity="1.000000" stroke="#000000" stroke-linecap="round" stroke-linejoin="round" stroke-width="4.000000"
	d="
M65.000000,436.500000 
	C61.468243,438.747345 57.231045,439.722687 54.013504,442.515564 
	C52.460377,443.863708 51.674011,445.167999 52.853703,447.571808 
	C53.874847,449.652588 54.487072,452.249023 52.078743,454.581299 
	C50.091854,456.505493 53.870441,458.299377 53.000000,460.500000 
"/>
<path fill="white" opacity="1.000000" stroke="#000000" stroke-linecap="round" stroke-linejoin="round" stroke-width="13.000000"
	d="
M272.500000,66.500000 
	C270.494965,70.083107 269.881439,73.731277 272.001587,77.499115 
	C272.773193,78.870407 272.957184,80.883522 274.523407,81.433273 
	C278.941467,82.984024 281.037689,86.938271 284.000000,90.000000 
"/>
<path fill="white" opacity="1.000000" stroke="#000000" stroke-linecap="round" stroke-linejoin="round" stroke-width="4.000000"
	d="
M157.000000,235.000000 
	C160.180069,238.978012 158.936203,244.102966 160.500000,248.500000 
"/>
<path fill="white" opacity="1.000000" stroke="#000000" stroke-linecap="round" stroke-linejoin="round" stroke-width="4.000000"
	d="
M329.000000,356.000000 
	C326.373505,360.144501 324.438324,364.545044 324.000000,369.500000 
"/>
<path fill="white" opacity="1.000000" stroke="#000000" stroke-linecap="round" stroke-linejoin="round" stroke-width="4.000000"
	d="
M245.500000,394.000000 
	C240.502548,395.916046 235.661865,398.526367 230.000000,397.500000 
"/>
<path fill="white" opacity="1.000000" stroke="#000000" stroke-linecap="round" stroke-linejoin="round" stroke-width="4.000000"
	d="
M164.000000,121.500000 
	C162.029327,123.921318 159.871307,125.179337 156.457550,124.139351 
	C154.872849,123.656570 152.833328,124.666664 151.000000,125.000000 
"/>
<path fill="white" opacity="1.000000" stroke="#000000" stroke-linecap="round" stroke-linejoin="round" stroke-width="4.000000"
	d="
M186.500000,188.000015 
	C185.166672,188.500015 183.746811,189.582870 182.514847,189.399979 
	C176.932037,188.571091 172.048904,192.557846 166.500000,191.500000 
"/>
<path fill="white" opacity="1.000000" stroke="#000000" stroke-linecap="round" stroke-linejoin="round" stroke-width="5.000000"
	d="
M188.000000,366.500000 
	C188.138947,369.520782 190.377899,370.950470 192.492645,372.509979 
	C194.692245,374.131989 196.833344,375.833313 199.000000,377.500000 
"/>
<path fill="white" opacity="1.000000" stroke="#000000" stroke-linecap="round" stroke-linejoin="round" stroke-width="4.000000"
	d="
M72.000000,389.000000 
	C71.382553,385.776520 71.906754,382.364838 69.636490,379.395630 
	C68.956116,378.505798 68.599030,376.029449 71.478088,375.399811 
	C74.285683,374.785767 77.316635,374.271362 79.702660,371.910828 
	C82.607513,374.130096 82.202477,376.702332 80.511055,379.506653 
	C79.104774,381.838287 79.560242,384.463593 79.500000,387.000000 
"/>
<path fill="white" opacity="1.000000" stroke="#000000" stroke-linecap="round" stroke-linejoin="round" stroke-width="4.000000"
	d="
M213.500000,188.000000 
	C210.989014,183.671082 208.806152,178.917526 202.500000,179.500000 
"/>
<path fill="white" opacity="1.000000" stroke="#000000" stroke-linecap="round" stroke-linejoin="round" stroke-width="4.000000"
	d="
M263.000000,62.500000 
	C262.559601,68.619514 259.217285,72.977150 254.500000,76.500000 
"/>
<path fill="white" opacity="1.000000" stroke="#000000" stroke-linecap="round" stroke-linejoin="round" stroke-width="4.000000"
	d="
M187.000000,189.000000 
	C186.976761,186.453522 189.483032,187.058014 189.891220,187.584351 
	C193.154800,191.792603 197.981628,189.896332 202.000000,191.000000 
"/>
<path fill="white" opacity="1.000000" stroke="#000000" stroke-linecap="round" stroke-linejoin="round" stroke-width="4.000000"
	d="
M264.500000,238.000000 
	C260.166656,239.166672 255.833328,240.333344 251.500000,241.500000 
"/>
<path fill="white" opacity="1.000000" stroke="#000000" stroke-linecap="round" stroke-linejoin="round" stroke-width="7.000000"
	d="
M272.500000,80.000000 
	C267.476257,83.262100 261.942657,84.857254 256.007385,85.562149 
	C250.468277,86.219994 248.990005,87.859955 247.999985,93.000000 
	C247.053864,97.912094 249.000488,100.314445 252.346619,103.653702 
	C257.124634,108.421944 262.192352,109.951111 268.500000,108.500000 
"/>
<path fill="white" opacity="1.000000" stroke="#000000" stroke-linecap="round" stroke-linejoin="round" stroke-width="10.000000"
	d="
M257.000000,73.500000 
	C257.154724,65.228271 249.869843,63.113468 244.963150,58.799938 
	C243.776199,59.382614 242.654327,59.977825 241.496719,60.492630 
	C238.833679,61.676933 236.303528,63.104202 236.548492,66.496498 
	C236.795639,69.919060 239.001358,72.077133 241.998413,73.503319 
	C243.591019,74.261177 245.166336,75.025963 247.000061,75.005325 
	C253.554489,74.931541 257.239380,78.504646 259.000000,84.500000 
"/>
<path fill="white" opacity="1.000000" stroke="#000000" stroke-linecap="round" stroke-linejoin="round" stroke-width="4.000000"
	d="
M241.000000,75.500000 
	C239.424255,79.992432 236.983047,82.891556 231.493240,82.660637 
	C228.578766,82.538040 225.788773,85.232658 222.500000,84.000000 
"/>
<path fill="white" opacity="1.000000" stroke="#000000" stroke-linecap="round" stroke-linejoin="round" stroke-width="4.000000"
	d="
M211.000000,69.500000 
	C210.266632,74.796013 214.349792,77.972763 216.500000,82.000000 
"/>
<path fill="white" opacity="1.000000" stroke="#000000" stroke-linecap="round" stroke-linejoin="round" stroke-width="8.000000"
	d="
M371.500000,345.000000 
	C365.068237,345.145966 362.568939,339.794067 359.021027,335.980438 
	C355.064087,331.727142 351.443817,326.961578 344.122620,329.247253 
	C344.154205,331.695587 341.325348,333.925598 343.000000,337.000000 
"/>
<path fill="white" opacity="1.000000" stroke="#000000" stroke-linecap="round" stroke-linejoin="round" stroke-width="5.000000"
	d="
M300.500000,86.500000 
	C301.802856,87.539558 303.105682,88.579117 304.350952,89.572739 
	C308.907684,87.348846 311.956207,88.069130 314.539764,91.469795 
	C316.315002,93.806488 315.885468,95.555763 314.023285,97.522041 
	C311.084625,100.624954 307.312805,103.083572 306.000000,107.500000 
"/>
<path fill="white" opacity="1.000000" stroke="#000000" stroke-linecap="round" stroke-linejoin="round" stroke-width="4.000000"
	d="
M220.000000,384.000000 
	C219.799728,388.149200 223.000137,390.178619 225.556702,392.435791 
	C227.348068,394.017395 229.236206,395.273926 229.000000,398.000000 
"/>
<path fill="white" opacity="1.000000" stroke="#000000" stroke-linecap="round" stroke-linejoin="round" stroke-width="7.000000"
	d="
M131.500000,85.000000 
	C132.915329,84.919769 134.202972,84.923454 135.020721,86.489174 
	C138.334335,92.833572 143.019302,97.691414 149.982758,100.050903 
	C150.284225,100.153061 150.333344,101.000000 150.500000,101.500000 
"/>
<path fill="white" opacity="1.000000" stroke="#000000" stroke-linecap="round" stroke-linejoin="round" stroke-width="4.000000"
	d="
M95.500000,372.500000 
	C95.408485,376.866974 99.688568,379.958893 99.000000,384.500000 
"/>
<path fill="white" opacity="1.000000" stroke="#000000" stroke-linecap="round" stroke-linejoin="round" stroke-width="10.000000"
	d="
M175.000000,329.000000 
	C175.047394,325.957520 171.219696,329.115143 171.547607,324.844666 
	C163.998505,332.665680 158.188690,339.625793 156.000000,349.000000 
"/>
<path fill="white" opacity="1.000000" stroke="#000000" stroke-linecap="round" stroke-linejoin="round" stroke-width="4.000000"
	d="
M174.000000,330.000000 
	C171.581863,337.234650 167.641068,343.644379 163.862732,350.208771 
	C162.943497,351.805847 162.534760,356.000000 163.500000,359.000000 
"/>
<path fill="white" opacity="1.000000" stroke="#000000" stroke-linecap="round" stroke-linejoin="round" stroke-width="5.000000"
	d="
M213.000000,204.000000 
	C215.195236,206.673813 213.399750,208.281784 211.519119,210.020676 
	C208.661942,212.662537 206.672684,215.597763 209.500000,219.500000 
"/>
<path fill="white" opacity="1.000000" stroke="#000000" stroke-linecap="round" stroke-linejoin="round" stroke-width="8.000000"
	d="
M126.500000,91.500000 
	C126.333336,92.500000 126.250977,93.522957 125.985977,94.496178 
	C124.531342,99.838318 125.685486,101.747856 131.500000,103.500000 
"/>
<path fill="white" opacity="1.000000" stroke="#000000" stroke-linecap="round" stroke-linejoin="round" stroke-width="4.000000"
	d="
M169.500000,342.000000 
	C172.295868,344.236176 172.037140,347.144867 170.929794,349.972504 
	C170.346710,351.461426 170.697205,352.666656 171.000000,354.000000 
"/>
<path fill="white" opacity="1.000000" stroke="#000000" stroke-linecap="round" stroke-linejoin="round" stroke-width="4.000000"
	d="
M338.000000,123.000000 
	C340.707245,123.981552 341.004333,126.391823 340.374603,128.461853 
	C339.763397,130.470978 340.620239,132.166672 340.500000,134.000000 
"/>
<path fill="white" opacity="1.000000" stroke="#000000" stroke-linecap="round" stroke-linejoin="round" stroke-width="4.000000"
	d="
M317.500000,231.500000 
	C313.666656,232.000000 309.833344,232.500000 306.000000,233.000000 
"/>
<path fill="white" opacity="1.000000" stroke="#000000" stroke-linecap="round" stroke-linejoin="round" stroke-width="4.000000"
	d="
M160.000000,365.000000 
	C156.619507,367.405701 153.631378,370.596069 149.000000,370.500000 
"/>
<path fill="white" opacity="1.000000" stroke="#000000" stroke-linecap="round" stroke-linejoin="round" stroke-width="4.000000"
	d="
M92.500000,416.000000 
	C88.614151,417.548370 85.752556,420.184998 84.000000,424.000000 
"/>
<path fill="white" opacity="1.000000" stroke="#000000" stroke-linecap="round" stroke-linejoin="round" stroke-width="4.000000"
	d="
M214.500000,188.500000 
	C210.422668,188.702682 206.916092,192.329880 202.500000,190.500000 
"/>
<path fill="white" opacity="1.000000" stroke="#000000" stroke-linecap="round" stroke-linejoin="round" stroke-width="5.000000"
	d="
M200.500000,78.500000 
	C203.653519,78.383217 203.930542,80.914383 202.851974,82.391945 
	C201.260300,84.572418 200.043106,87.641251 195.981369,87.155983 
	C193.339676,86.840370 190.607376,88.418968 190.089951,91.515030 
	C189.786606,93.330200 188.241882,93.768013 187.500000,95.000000 
"/>
<path fill="white" opacity="1.000000" stroke="#000000" stroke-linecap="round" stroke-linejoin="round" stroke-width="8.000000"
	d="
M207.000000,70.499992 
	C208.000000,70.166656 209.081848,69.978371 209.983017,69.469879 
	C211.872726,68.403595 212.509094,65.399940 216.098938,67.314484 
	C219.650879,69.208817 218.881378,71.788933 219.000000,74.500000 
"/>
<path fill="white" opacity="1.000000" stroke="#000000" stroke-linecap="round" stroke-linejoin="round" stroke-width="4.000000"
	d="
M79.500000,361.500000 
	C79.545029,365.005798 79.069069,368.536407 80.000000,372.000000 
"/>
<path fill="white" opacity="1.000000" stroke="#000000" stroke-linecap="round" stroke-linejoin="round" stroke-width="5.000000"
	d="
M326.000000,119.500000 
	C322.298584,121.281525 319.107086,117.709038 315.500000,118.500000 
"/>
<path fill="white" opacity="1.000000" stroke="#000000" stroke-linecap="round" stroke-linejoin="round" stroke-width="4.000000"
	d="
M192.500000,248.500000 
	C197.000000,247.422562 201.447540,246.103424 206.030518,248.440155 
	C207.492554,249.185638 208.649155,247.453293 210.000000,247.000000 
"/>
<path fill="white" opacity="1.000000" stroke="#000000" stroke-linecap="round" stroke-linejoin="round" stroke-width="4.000000"
	d="
M140.500000,350.000000 
	C141.333344,352.166656 142.447693,354.272522 142.932846,356.514526 
	C143.626541,359.720367 145.438370,360.855560 148.500000,360.500000 
"/>
<path fill="white" opacity="1.000000" stroke="#000000" stroke-linecap="round" stroke-linejoin="round" stroke-width="4.000000"
	d="
M179.000000,50.000000 
	C182.888885,51.444450 185.575714,54.090958 187.000000,58.000000 
"/>
<path fill="white" opacity="1.000000" stroke="#000000" stroke-linecap="round" stroke-linejoin="round" stroke-width="9.000000"
	d="
M217.000000,101.500000 
	C217.333328,103.000000 217.521851,104.550751 218.026474,105.990723 
	C219.708755,110.791367 218.408569,113.169395 213.512909,114.545921 
	C211.518967,115.106567 209.569702,115.584892 207.500000,115.500000 
"/>
<path fill="white" opacity="1.000000" stroke="#000000" stroke-linecap="round" stroke-linejoin="round" stroke-width="8.000000"
	d="
M163.000000,349.750000 
	C161.833328,349.666656 160.657944,349.644958 159.502640,349.481323 
	C158.500763,349.339417 157.358719,350.014343 156.080704,348.551880 
	C152.784836,354.109894 148.633514,359.216034 147.722549,365.532104 
	C147.190582,369.220428 146.976685,373.776062 150.114441,376.884491 
	C150.933060,377.695496 150.814438,378.259460 151.000000,379.000000 
"/>
<path fill="white" opacity="1.000000" stroke="#000000" stroke-linecap="round" stroke-linejoin="round" stroke-width="4.000000"
	d="
M195.500000,239.500000 
	C200.039551,239.899689 204.294128,242.310440 208.996857,241.482193 
	C211.168777,241.099670 210.888107,242.908096 211.522812,243.986572 
	C212.316803,245.335678 212.186508,246.101410 210.500000,246.250000 
"/>
<path fill="white" opacity="1.000000" stroke="#000000" stroke-linecap="round" stroke-linejoin="round" stroke-width="4.000000"
	d="
M102.000000,422.500000 
	C94.963646,424.411560 92.623772,428.155334 93.941818,435.011200 
	C94.183075,436.266113 93.518234,437.667969 93.529922,438.999725 
	C93.556854,442.068665 94.969086,443.296387 98.000000,442.000000 
"/>
<path fill="white" opacity="1.000000" stroke="#000000" stroke-linecap="round" stroke-linejoin="round" stroke-width="9.000000"
	d="
M160.500000,388.500000 
	C155.208923,390.890289 149.474899,389.621002 143.974686,390.292694 
	C139.076752,390.890900 139.539520,386.376282 139.500000,383.000000 
"/>
<path fill="white" opacity="1.000000" stroke="#000000" stroke-linecap="round" stroke-linejoin="round" stroke-width="7.000000"
	d="
M148.500000,192.500000 
	C148.130188,198.238602 145.260834,203.196091 143.500000,208.500000 
"/>
<path fill="white" opacity="1.000000" stroke="#000000" stroke-linecap="round" stroke-linejoin="round" stroke-width="4.000000"
	d="
M198.500000,49.500000 
	C204.721771,53.541889 204.750183,53.548210 202.982376,61.496082 
	C202.463837,63.827492 204.128967,65.271721 205.036911,66.980392 
	C207.141388,70.940842 206.115860,74.495384 204.000000,78.000000 
"/>
<path fill="white" opacity="1.000000" stroke="#000000" stroke-linecap="round" stroke-linejoin="round" stroke-width="4.000000"
	d="
M225.500000,415.000000 
	C222.707428,417.200195 219.622025,416.764954 216.500000,416.000000 
"/>
<path fill="white" opacity="1.000000" stroke="#000000" stroke-linecap="round" stroke-linejoin="round" stroke-width="4.000000"
	d="
M207.000000,103.000000 
	C206.500000,103.666672 205.564301,104.336563 205.569199,104.999489 
	C205.607147,110.120377 202.688095,110.138992 199.000000,109.000000 
"/>
<path fill="white" opacity="1.000000" stroke="#000000" stroke-linecap="round" stroke-linejoin="round" stroke-width="5.000000"
	d="
M81.000000,370.000000 
	C82.000000,369.166656 82.985146,368.314697 84.002968,367.503723 
	C86.468224,365.539307 87.545441,363.354095 86.621941,359.966766 
	C85.914818,357.373108 85.785263,354.351440 90.544647,355.859039 
	C92.612068,356.513916 95.166664,354.851746 97.500000,356.000000 
"/>
<path fill="white" opacity="1.000000" stroke="#000000" stroke-linecap="round" stroke-linejoin="round" stroke-width="4.000000"
	d="
M161.000000,76.000000 
	C163.476227,78.609467 166.012619,81.110626 170.000000,81.000000 
"/>
<path fill="white" opacity="1.000000" stroke="#000000" stroke-linecap="round" stroke-linejoin="round" stroke-width="4.000000"
	d="
M150.500000,126.500000 
	C147.015305,123.308960 144.429932,126.818825 142.082458,128.145874 
	C136.549805,131.273560 136.424622,131.567581 132.000000,127.500000 
"/>
<path fill="white" opacity="1.000000" stroke="#000000" stroke-linecap="round" stroke-linejoin="round" stroke-width="4.000000"
	d="
M128.500000,348.000000 
	C132.897964,350.666656 128.758011,353.333344 128.500000,356.000000 
"/>
<path fill="white" opacity="1.000000" stroke="#000000" stroke-linecap="round" stroke-linejoin="round" stroke-width="4.000000"
	d="
M115.500000,362.500000 
	C115.500000,361.500000 115.676559,360.461334 115.467598,359.507111 
	C114.782028,356.376373 112.414078,355.541870 110.002235,357.502747 
	C108.716850,358.547791 108.412544,360.579224 106.500000,361.000000 
"/>
<path fill="white" opacity="1.000000" stroke="#000000" stroke-linecap="round" stroke-linejoin="round" stroke-width="5.000000"
	d="
M102.000000,387.000000 
	C107.018356,390.296326 105.390343,395.382080 105.500000,400.000000 
"/>
<path fill="white" opacity="1.000000" stroke="#000000" stroke-linecap="round" stroke-linejoin="round" stroke-width="4.000000"
	d="
M142.500000,334.000000 
	C144.946869,334.489716 146.509109,336.287720 147.939102,338.049438 
	C148.803375,339.114197 149.313309,340.249146 148.123093,342.080017 
	C144.844193,347.123871 146.134369,349.265747 152.498291,350.508789 
	C153.011276,350.608978 153.500000,350.833344 154.000000,351.000000 
"/>
<path fill="white" opacity="1.000000" stroke="#000000" stroke-linecap="round" stroke-linejoin="round" stroke-width="4.000000"
	d="
M276.500000,108.500000 
	C276.878113,111.238808 275.281891,114.471191 278.500000,116.500000 
"/>
<path fill="white" opacity="1.000000" stroke="#000000" stroke-linecap="round" stroke-linejoin="round" stroke-width="5.000000"
	d="
M250.500000,62.000000 
	C251.749649,59.499306 253.731888,58.697208 256.503815,58.959656 
	C262.503418,59.527721 266.468140,62.729424 269.000000,68.000000 
"/>
<path fill="white" opacity="1.000000" stroke="#000000" stroke-linecap="round" stroke-linejoin="round" stroke-width="4.000000"
	d="
M311.500000,101.500000 
	C313.768982,103.077583 317.213135,101.717163 319.000000,104.500000 
"/>
<path fill="white" opacity="1.000000" stroke="#000000" stroke-linecap="round" stroke-linejoin="round" stroke-width="4.000000"
	d="
M172.500000,90.000000 
	C176.815933,92.552589 175.244125,96.787392 175.500000,100.500000 
"/>
<path fill="white" opacity="1.000000" stroke="#000000" stroke-linecap="round" stroke-linejoin="round" stroke-width="5.000000"
	d="
M195.500000,86.500000 
	C192.049545,80.240135 190.708160,80.057220 184.500000,85.000000 
"/>
<path fill="white" opacity="1.000000" stroke="#000000" stroke-linecap="round" stroke-linejoin="round" stroke-width="3.000000"
	d="
M151.500000,316.000000 
	C153.809708,316.498688 156.076721,317.296295 158.500000,317.000000 
"/>
<path fill="white" opacity="1.000000" stroke="#000000" stroke-linecap="round" stroke-linejoin="round" stroke-width="5.000000"
	d="
M454.000000,411.500031 
	C453.333344,412.000031 452.678436,412.913391 451.998077,412.932709 
	C447.692749,413.055023 443.272369,416.063171 443.184082,420.004120 
	C443.137238,422.095276 441.456116,423.170166 441.500000,425.000000 
"/>
<path fill="white" opacity="1.000000" stroke="#000000" stroke-linecap="round" stroke-linejoin="round" stroke-width="3.000000"
	d="
M335.500000,112.000000 
	C333.043762,111.473000 330.859009,112.846420 328.500000,113.000000 
"/>
<path fill="white" opacity="1.000000" stroke="#000000" stroke-linecap="round" stroke-linejoin="round" stroke-width="4.000000"
	d="
M180.000000,308.500000 
	C178.500000,307.500000 177.085007,306.327484 175.481583,305.537354 
	C172.513214,304.074707 169.921738,306.128845 169.396973,309.483887 
	C168.988556,312.095062 170.496399,315.698547 166.500000,317.000000 
"/>
<path fill="white" opacity="1.000000" stroke="#000000" stroke-linecap="round" stroke-linejoin="round" stroke-width="4.000000"
	d="
M121.500000,391.500000 
	C123.055084,397.213135 117.474388,398.043884 115.000000,401.000000 
"/>
<path fill="white" opacity="1.000000" stroke="#000000" stroke-linecap="round" stroke-linejoin="round" stroke-width="4.000000"
	d="
M146.500000,349.000000 
	C142.743591,350.448730 139.541260,349.127014 136.500000,347.000000 
"/>
<path fill="white" opacity="1.000000" stroke="#000000" stroke-linecap="round" stroke-linejoin="round" stroke-width="4.000000"
	d="
M265.000000,118.500000 
	C263.280029,121.862312 261.117981,123.161621 258.000000,120.000000 
"/>
<path fill="white" opacity="1.000000" stroke="#000000" stroke-linecap="round" stroke-linejoin="round" stroke-width="4.000000"
	d="
M212.000000,51.000000 
	C210.181946,51.993362 210.682358,54.789982 208.281693,55.263695 
	C207.199799,54.902168 205.849899,54.451084 204.500000,54.000000 
"/>
<path fill="white" opacity="1.000000" stroke="#000000" stroke-linecap="round" stroke-linejoin="round" stroke-width="4.000000"
	d="
M137.000000,221.500000 
	C138.520630,222.469055 139.065903,224.901154 142.215530,224.382248 
	C143.896713,219.516891 138.491501,213.778748 143.000000,209.000000 
"/>
<path fill="white" opacity="1.000000" stroke="#000000" stroke-linecap="round" stroke-linejoin="round" stroke-width="4.000000"
	d="
M44.500000,282.000000 
	C41.251572,282.260376 38.716850,283.060150 37.901653,286.979553 
	C37.057953,291.035950 38.364170,294.080902 42.500011,295.499969 
	C45.268898,296.450012 50.513084,293.827942 51.500008,291.000000 
	C52.611763,287.814331 50.391434,283.608398 46.997890,282.506500 
	C46.345844,282.294800 45.666664,282.166687 44.999996,282.000000 
"/>
<path fill="white" opacity="1.000000" stroke="#000000" stroke-linecap="round" stroke-linejoin="round" stroke-width="4.000000"
	d="
M96.000000,223.500000 
	C91.976578,224.112549 90.962852,227.574173 90.680214,230.517303 
	C90.337616,234.084793 93.417007,236.623672 96.102135,238.340240 
	C98.142410,239.644547 100.412567,237.411362 101.925575,235.924286 
	C103.877213,234.006058 105.351303,231.212708 104.373817,228.546249 
	C103.152519,225.214645 100.645348,222.800781 96.500000,223.500000 
"/>
</svg>
